<svg width="122" height="123" viewBox="0 0 122 123" fill="none" xmlns="http://www.w3.org/2000/svg">
<g filter="url(#filter0_i_8_36)">
<path fill-rule="evenodd" clip-rule="evenodd" d="M38.223 6.22862C44.1513 5.9557 46.0414 5.89506 61.1426 5.89506C76.2437 5.89506 78.1339 5.96076 84.0571 6.22862C89.9803 6.49648 94.0235 7.44156 97.5612 8.81118C101.266 10.2111 104.627 12.3995 107.406 15.2297C110.236 18.0043 112.42 21.3601 113.815 25.0697C115.189 28.6074 116.129 32.6506 116.402 38.5637C116.675 44.5021 116.736 46.3922 116.736 61.4883C116.736 76.5895 116.67 78.4796 116.402 84.4079C116.134 90.321 115.189 94.3642 113.815 97.9019C112.42 101.612 110.233 104.973 107.406 107.752C104.627 110.582 101.266 112.766 97.5612 114.16C94.0235 115.535 89.9803 116.475 84.0672 116.748C78.1339 117.021 76.2437 117.082 61.1426 117.082C46.0414 117.082 44.1513 117.016 38.223 116.748C32.3099 116.48 28.2667 115.535 24.729 114.16C21.019 112.765 17.6576 110.578 14.8789 107.752C12.0506 104.976 9.86191 101.616 8.46544 97.907C7.09582 94.3692 6.15579 90.3261 5.88288 84.413C5.60996 78.4746 5.54932 76.5844 5.54932 61.4883C5.54932 46.3872 5.61502 44.497 5.88288 38.5738C6.15073 32.6506 7.09582 28.6074 8.46544 25.0697C9.86397 21.3605 12.0543 18.0008 14.8839 15.2246C17.6587 12.3969 21.0167 10.2083 24.7239 8.81118C28.2617 7.44156 32.3048 6.50153 38.2179 6.22862H38.223ZM83.6073 16.2354C77.7447 15.9675 75.986 15.912 61.1426 15.912C46.2992 15.912 44.5404 15.9675 38.6778 16.2354C33.255 16.483 30.3136 17.3877 28.3527 18.1508C25.76 19.1616 23.9052 20.3594 21.9594 22.3052C20.115 24.0996 18.6955 26.284 17.8051 28.6984C17.042 30.6593 16.1373 33.6007 15.8897 39.0236C15.6218 44.8862 15.5662 46.6449 15.5662 61.4883C15.5662 76.3317 15.6218 78.0905 15.8897 83.9531C16.1373 89.3759 17.042 92.3173 17.8051 94.2782C18.6946 96.689 20.1148 98.8773 21.9594 100.671C23.7536 102.516 25.9419 103.936 28.3527 104.826C30.3136 105.589 33.255 106.494 38.6778 106.741C44.5404 107.009 46.2941 107.065 61.1426 107.065C75.991 107.065 77.7447 107.009 83.6073 106.741C89.0302 106.494 91.9716 105.589 93.9325 104.826C96.5252 103.815 98.38 102.617 100.326 100.671C102.17 98.8773 103.591 96.689 104.48 94.2782C105.243 92.3173 106.148 89.3759 106.395 83.9531C106.663 78.0905 106.719 76.3317 106.719 61.4883C106.719 46.6449 106.663 44.8862 106.395 39.0236C106.148 33.6007 105.243 30.6593 104.48 28.6984C103.469 26.1057 102.271 24.2509 100.326 22.3052C98.5312 20.4609 96.3468 19.0414 93.9325 18.1508C91.9716 17.3877 89.0302 16.483 83.6073 16.2354ZM54.0418 78.6262C58.0074 80.277 62.4231 80.4998 66.5348 79.2565C70.6464 78.0133 74.1989 75.3812 76.5854 71.8097C78.972 68.2382 80.0446 63.9489 79.62 59.6745C79.1954 55.4 77.3 51.4056 74.2575 48.3734C72.318 46.4351 69.9729 44.9509 67.3909 44.0277C64.809 43.1045 62.0545 42.7653 59.3257 43.0345C56.5969 43.3036 53.9617 44.1744 51.6099 45.5843C49.258 46.9941 47.248 48.9078 45.7246 51.1877C44.2011 53.4675 43.2021 56.0568 42.7994 58.7691C42.3967 61.4814 42.6005 64.2492 43.3959 66.8734C44.1913 69.4975 45.5587 71.9126 47.3995 73.9449C49.2404 75.9771 51.5089 77.5759 54.0418 78.6262ZM40.937 41.2827C43.5904 38.6293 46.7405 36.5244 50.2074 35.0884C53.6743 33.6524 57.39 32.9133 61.1426 32.9133C64.8951 32.9133 68.6109 33.6524 72.0778 35.0884C75.5447 36.5244 78.6948 38.6293 81.3482 41.2827C84.0016 43.9361 86.1065 47.0862 87.5425 50.5531C88.9785 54.02 89.7176 57.7358 89.7176 61.4883C89.7176 65.2409 88.9785 68.9566 87.5425 72.4235C86.1065 75.8904 84.0016 79.0405 81.3482 81.6939C75.9893 87.0528 68.7212 90.0634 61.1426 90.0634C53.564 90.0634 46.2958 87.0528 40.937 81.6939C35.5781 76.3351 32.5675 69.0669 32.5675 61.4883C32.5675 53.9097 35.5781 46.6416 40.937 41.2827ZM96.0551 37.1688C96.7127 36.5485 97.2391 35.8026 97.6032 34.9753C97.9673 34.1479 98.1617 33.2559 98.1749 32.352C98.188 31.4482 98.0197 30.5509 97.6799 29.7133C97.3401 28.8757 96.8356 28.1147 96.1965 27.4755C95.5573 26.8364 94.7963 26.3319 93.9587 25.9921C93.1211 25.6523 92.2238 25.484 91.32 25.4972C90.4161 25.5103 89.5241 25.7047 88.6967 26.0688C87.8694 26.4329 87.1235 26.9593 86.5032 27.6169C85.2969 28.8957 84.6364 30.5942 84.6621 32.352C84.6877 34.1098 85.3974 35.7885 86.6405 37.0315C87.8835 38.2746 89.5622 38.9843 91.32 39.0099C93.0778 39.0356 94.7764 38.3751 96.0551 37.1688Z" fill="#5B7DF5"/>
</g>
<defs>
<filter id="filter0_i_8_36" x="0.495361" y="0.841125" width="121.294" height="125.294" filterUnits="userSpaceOnUse" color-interpolation-filters="sRGB">
<feFlood flood-opacity="0" result="BackgroundImageFix"/>
<feBlend mode="normal" in="SourceGraphic" in2="BackgroundImageFix" result="shape"/>
<feColorMatrix in="SourceAlpha" type="matrix" values="0 0 0 0 0 0 0 0 0 0 0 0 0 0 0 0 0 0 127 0" result="hardAlpha"/>
<feOffset dy="4"/>
<feGaussianBlur stdDeviation="7.5"/>
<feComposite in2="hardAlpha" operator="arithmetic" k2="-1" k3="1"/>
<feColorMatrix type="matrix" values="0 0 0 0 0 0 0 0 0 0 0 0 0 0 0 0 0 0 0.2 0"/>
<feBlend mode="normal" in2="shape" result="effect1_innerShadow_8_36"/>
</filter>
</defs>
</svg>
