<svg width="122" height="123" viewBox="0 0 122 123" fill="none" xmlns="http://www.w3.org/2000/svg">
<g filter="url(#filter0_i_8_57)">
<path fill-rule="evenodd" clip-rule="evenodd" d="M5.75025 15.2076C5.75025 12.7439 6.72892 10.3812 8.47097 8.63916C10.213 6.89711 12.5757 5.91844 15.0394 5.91844H107.638C108.858 5.91644 110.068 6.15528 111.196 6.62127C112.325 7.08726 113.35 7.77126 114.214 8.6341C115.078 9.49694 115.763 10.5217 116.23 11.6496C116.697 12.7776 116.937 13.9867 116.937 15.2076V107.806C116.938 109.027 116.699 110.236 116.232 111.365C115.766 112.493 115.081 113.519 114.218 114.382C113.355 115.246 112.33 115.931 111.201 116.398C110.073 116.866 108.864 117.106 107.643 117.105H15.0394C13.8191 117.105 12.6108 116.865 11.4834 116.397C10.3561 115.93 9.33182 115.246 8.46918 114.382C7.60654 113.519 6.92241 112.495 6.45589 111.367C5.98936 110.24 5.74958 109.031 5.75025 107.811V15.2076ZM49.7599 48.3108H64.8156V55.8715C66.9888 51.5251 72.5481 47.6134 80.9022 47.6134C96.9182 47.6134 100.714 56.2708 100.714 72.1553V101.579H84.5057V75.7739C84.5057 66.7274 82.3325 61.6229 76.8136 61.6229C69.1569 61.6229 65.9729 67.1266 65.9729 75.7739V101.579H49.7599V48.3108ZM21.9633 100.887H38.1763V47.6134H21.9633V100.882V100.887ZM40.496 30.238C40.5266 31.6261 40.2796 33.0064 39.7695 34.2979C39.2594 35.5893 38.4965 36.7658 37.5255 37.7584C36.5545 38.751 35.3951 39.5396 34.1152 40.078C32.8353 40.6164 31.4608 40.8938 30.0723 40.8938C28.6838 40.8938 27.3093 40.6164 26.0294 40.078C24.7495 39.5396 23.5901 38.751 22.6191 37.7584C21.6481 36.7658 20.8852 35.5893 20.3751 34.2979C19.865 33.0064 19.618 31.6261 19.6486 30.238C19.7086 27.5132 20.8331 24.9202 22.7814 23.0143C24.7297 21.1084 27.3468 20.0412 30.0723 20.0412C32.7978 20.0412 35.4149 21.1084 37.3632 23.0143C39.3115 24.9202 40.436 27.5132 40.496 30.238Z" fill="#5B7DF5"/>
</g>
<defs>
<filter id="filter0_i_8_57" x="0.696289" y="0.864502" width="121.294" height="125.294" filterUnits="userSpaceOnUse" color-interpolation-filters="sRGB">
<feFlood flood-opacity="0" result="BackgroundImageFix"/>
<feBlend mode="normal" in="SourceGraphic" in2="BackgroundImageFix" result="shape"/>
<feColorMatrix in="SourceAlpha" type="matrix" values="0 0 0 0 0 0 0 0 0 0 0 0 0 0 0 0 0 0 127 0" result="hardAlpha"/>
<feOffset dy="4"/>
<feGaussianBlur stdDeviation="7.5"/>
<feComposite in2="hardAlpha" operator="arithmetic" k2="-1" k3="1"/>
<feColorMatrix type="matrix" values="0 0 0 0 0 0 0 0 0 0 0 0 0 0 0 0 0 0 0.2 0"/>
<feBlend mode="normal" in2="shape" result="effect1_innerShadow_8_57"/>
</filter>
</defs>
</svg>
