<svg width="122" height="122" viewBox="0 0 122 122" fill="none" xmlns="http://www.w3.org/2000/svg">
<g clip-path="url(#clip0_8_21)" filter="url(#filter0_i_8_21)">
<path d="M0.0420532 58.8698C0.0420532 25.0666 26.5221 0.0420532 60.6893 0.0420532C94.8564 0.0420532 121.336 25.0666 121.336 58.8698C121.336 92.6731 94.8564 117.698 60.6893 117.698C54.5487 117.698 48.6659 116.886 43.1319 115.37C42.0588 115.072 40.9156 115.152 39.8948 115.598L27.8564 120.919C27.1293 121.24 26.3346 121.377 25.5421 121.319C24.7495 121.261 23.9835 121.009 23.3112 120.585C22.6389 120.161 22.081 119.579 21.6865 118.889C21.292 118.199 21.073 117.423 21.0487 116.629L20.7152 105.841C20.6921 105.184 20.5357 104.539 20.2555 103.945C19.9753 103.351 19.5772 102.82 19.0853 102.384C7.28939 91.8316 0.0420532 76.5485 0.0420532 58.8698ZM42.0857 47.8093L24.2706 76.0709C22.5649 78.7849 25.8929 81.84 28.4477 79.9068L47.5895 65.3818C48.219 64.9036 48.9872 64.6435 49.7778 64.6408C50.5684 64.638 51.3383 64.8928 51.9712 65.3667L66.1399 75.9951C67.1452 76.749 68.2958 77.2864 69.5191 77.5735C70.7425 77.8606 72.012 77.8912 73.2477 77.6633C74.4835 77.4354 75.6586 76.9539 76.699 76.2493C77.7394 75.5446 78.6226 74.6321 79.2928 73.5692L97.1079 45.3076C98.8212 42.5936 95.4856 39.5385 92.9308 41.4717L73.789 55.9967C73.1595 56.4749 72.3913 56.735 71.6007 56.7377C70.8101 56.7405 70.0402 56.4856 69.4073 56.0118L55.2386 45.3758C54.2333 44.622 53.0827 44.0845 51.8594 43.7974C50.636 43.5103 49.3665 43.4797 48.1308 43.7076C46.895 43.9356 45.7199 44.417 44.6795 45.1216C43.6391 45.8263 42.7559 46.7388 42.0857 47.8017V47.8093Z" fill="#5B7DF5"/>
</g>
<defs>
<filter id="filter0_i_8_21" x="0.0420532" y="0.0420532" width="121.294" height="125.294" filterUnits="userSpaceOnUse" color-interpolation-filters="sRGB">
<feFlood flood-opacity="0" result="BackgroundImageFix"/>
<feBlend mode="normal" in="SourceGraphic" in2="BackgroundImageFix" result="shape"/>
<feColorMatrix in="SourceAlpha" type="matrix" values="0 0 0 0 0 0 0 0 0 0 0 0 0 0 0 0 0 0 127 0" result="hardAlpha"/>
<feOffset dy="4"/>
<feGaussianBlur stdDeviation="7.5"/>
<feComposite in2="hardAlpha" operator="arithmetic" k2="-1" k3="1"/>
<feColorMatrix type="matrix" values="0 0 0 0 0 0 0 0 0 0 0 0 0 0 0 0 0 0 0.2 0"/>
<feBlend mode="normal" in2="shape" result="effect1_innerShadow_8_21"/>
</filter>
<clipPath id="clip0_8_21">
<rect width="121.294" height="121.294" fill="white" transform="translate(0.0420532 0.0420532)"/>
</clipPath>
</defs>
</svg>
