<svg width="110" height="110" viewBox="0 0 110 110" fill="none" xmlns="http://www.w3.org/2000/svg">
<g clip-path="url(#clip0_8_70)" filter="url(#filter0_i_8_70)">
<path d="M55.9498 3.63348C60.4804 3.63348 75.877 4.90536 83.1267 21.1441C85.5433 26.6235 84.9692 35.8979 84.4879 43.3641V43.6322C84.4329 44.4572 84.3814 45.2272 84.3436 45.9766C84.6839 46.1725 85.2751 46.3891 86.1861 46.3891C87.5473 46.3169 89.1939 45.8357 90.9126 45.0107C91.6654 44.5982 92.487 44.526 93.0439 44.526C93.8689 44.526 94.6904 44.6704 95.3711 44.9385C97.4301 45.6191 98.7364 47.1419 98.7364 48.7885C98.8086 50.8475 96.9454 52.6385 93.1676 54.1407C92.7723 54.2644 92.2189 54.481 91.5933 54.6769C89.5342 55.3025 86.382 56.3235 85.4883 58.3997C85.0758 59.4207 85.2201 60.7991 86.0417 62.3735L86.1139 62.4457C86.382 63.0713 93.0954 78.3613 108.062 80.8329C109.245 81.0494 110.066 82.0669 109.998 83.1772C109.995 83.5287 109.922 83.876 109.781 84.1982C108.688 86.8107 103.944 88.7288 95.3676 90.035C95.0995 90.4475 94.8142 91.7538 94.6148 92.6475C94.4625 93.5 94.2593 94.3425 94.0064 95.1707C93.6489 96.4047 92.7517 97.0338 91.4454 97.0338H91.3217C90.6961 97.0338 89.8883 96.8894 88.8501 96.6935C86.932 96.2799 84.9755 96.0702 83.0133 96.0679C81.6348 96.0679 80.2736 96.14 78.8229 96.4082C76.0833 96.8929 73.6839 98.5394 70.927 100.471C67.0254 103.211 62.567 106.363 55.8329 106.363C55.5648 106.363 55.2967 106.291 55.0079 106.291H54.3273C47.5967 106.291 43.2104 103.211 39.2883 100.399C36.5486 98.4638 34.2214 96.8172 31.4645 96.336C30.0597 96.1283 28.6426 96.0146 27.2226 95.9957C24.7511 95.9957 22.8364 96.4082 21.3858 96.6935C20.5744 96.8842 19.7469 96.9982 18.9142 97.0338C17.1954 97.0338 16.5148 95.9957 16.2467 95.0985C15.9614 94.2219 15.8342 93.3075 15.6211 92.5032C15.4045 91.6782 15.1364 90.231 14.8683 89.8907C6.07857 88.8697 1.35201 86.955 0.241695 84.2704C0.0905001 83.9442 0.00522193 83.5914 -0.00924283 83.2322C-0.0311743 82.6738 0.154435 82.127 0.511796 81.6972C0.869158 81.2675 1.37296 80.9853 1.92607 80.905C16.8758 78.4335 23.6064 63.1263 23.8745 62.4835L23.9467 62.3597C24.7717 60.7647 24.9848 59.4069 24.5001 58.3688C23.6064 56.3819 20.4542 55.361 18.3951 54.6632C17.8499 54.5275 17.3165 54.3482 16.8001 54.1269C11.7333 52.1229 11.0354 49.8644 11.3208 48.29C11.7333 46.0866 14.4008 44.6566 16.6729 44.6566C17.3364 44.6566 17.907 44.7804 18.4261 44.9969C20.3408 45.8735 22.0423 46.3582 23.4929 46.3582C24.5483 46.3582 25.2461 46.09 25.6242 45.8941L25.4076 43.2816C24.9608 35.8325 24.3695 26.541 26.8033 21.1166C33.857 4.95005 49.202 3.71255 53.7292 3.71255L55.6439 3.64036L55.9498 3.63348Z" fill="#5B7DF5"/>
</g>
<defs>
<filter id="filter0_i_8_70" x="0" y="0" width="110" height="114" filterUnits="userSpaceOnUse" color-interpolation-filters="sRGB">
<feFlood flood-opacity="0" result="BackgroundImageFix"/>
<feBlend mode="normal" in="SourceGraphic" in2="BackgroundImageFix" result="shape"/>
<feColorMatrix in="SourceAlpha" type="matrix" values="0 0 0 0 0 0 0 0 0 0 0 0 0 0 0 0 0 0 127 0" result="hardAlpha"/>
<feOffset dy="4"/>
<feGaussianBlur stdDeviation="7.5"/>
<feComposite in2="hardAlpha" operator="arithmetic" k2="-1" k3="1"/>
<feColorMatrix type="matrix" values="0 0 0 0 0 0 0 0 0 0 0 0 0 0 0 0 0 0 0.2 0"/>
<feBlend mode="normal" in2="shape" result="effect1_innerShadow_8_70"/>
</filter>
<clipPath id="clip0_8_70">
<rect width="110" height="110" fill="white"/>
</clipPath>
</defs>
</svg>
