<svg width="0" height="0" class="hidden">
  <symbol fill="none" xmlns="http://www.w3.org/2000/svg" viewBox="0 0 123 123" id="facebook">
    <g clip-path="url(#clip0_8_43)" filter="url(#filter0_i_8_43)">
      <path d="M89.7121 69.0925L93.0818 47.142H72.0183V32.8975C72.0183 26.8935 74.9597 21.0372 84.3941 21.0372H93.9688V2.35029C93.9688 2.35029 85.2811 0.868225 76.9724 0.868225C59.6273 0.868225 48.2901 11.3829 48.2901 30.4148V47.1458H29.0081V69.0963H48.2901V122.163H72.0183V69.0963L89.7121 69.0925Z" fill="#5B7DF5"></path>
    </g>
    <defs>
      <filter id="filter0_i_8_43" x="0.841125" y="0.864502" width="121.294" height="125.294" filterUnits="userSpaceOnUse" color-interpolation-filters="sRGB">
        <feFlood flood-opacity="0" result="BackgroundImageFix"></feFlood>
        <feBlend mode="normal" in="SourceGraphic" in2="BackgroundImageFix" result="shape"></feBlend>
        <feColorMatrix in="SourceAlpha" type="matrix" values="0 0 0 0 0 0 0 0 0 0 0 0 0 0 0 0 0 0 127 0" result="hardAlpha"></feColorMatrix>
        <feOffset dy="4"></feOffset>
        <feGaussianBlur stdDeviation="7.5"></feGaussianBlur>
        <feComposite in2="hardAlpha" operator="arithmetic" k2="-1" k3="1"></feComposite>
        <feColorMatrix type="matrix" values="0 0 0 0 0 0 0 0 0 0 0 0 0 0 0 0 0 0 0.2 0"></feColorMatrix>
        <feBlend mode="normal" in2="shape" result="effect1_innerShadow_8_43"></feBlend>
      </filter>
      <clipPath id="clip0_8_43">
        <rect width="121.294" height="121.294" fill="white" transform="translate(0.841125 0.864502)"></rect>
      </clipPath>
    </defs>
  </symbol>
  <symbol fill="none" xmlns="http://www.w3.org/2000/svg" viewBox="0 0 122 123" id="instagram">
    <g filter="url(#filter0_i_8_36)">
      <path fill-rule="evenodd" clip-rule="evenodd" d="M38.223 6.22862C44.1513 5.9557 46.0414 5.89506 61.1426 5.89506C76.2437 5.89506 78.1339 5.96076 84.0571 6.22862C89.9803 6.49648 94.0235 7.44156 97.5612 8.81118C101.266 10.2111 104.627 12.3995 107.406 15.2297C110.236 18.0043 112.42 21.3601 113.815 25.0697C115.189 28.6074 116.129 32.6506 116.402 38.5637C116.675 44.5021 116.736 46.3922 116.736 61.4883C116.736 76.5895 116.67 78.4796 116.402 84.4079C116.134 90.321 115.189 94.3642 113.815 97.9019C112.42 101.612 110.233 104.973 107.406 107.752C104.627 110.582 101.266 112.766 97.5612 114.16C94.0235 115.535 89.9803 116.475 84.0672 116.748C78.1339 117.021 76.2437 117.082 61.1426 117.082C46.0414 117.082 44.1513 117.016 38.223 116.748C32.3099 116.48 28.2667 115.535 24.729 114.16C21.019 112.765 17.6576 110.578 14.8789 107.752C12.0506 104.976 9.86191 101.616 8.46544 97.907C7.09582 94.3692 6.15579 90.3261 5.88288 84.413C5.60996 78.4746 5.54932 76.5844 5.54932 61.4883C5.54932 46.3872 5.61502 44.497 5.88288 38.5738C6.15073 32.6506 7.09582 28.6074 8.46544 25.0697C9.86397 21.3605 12.0543 18.0008 14.8839 15.2246C17.6587 12.3969 21.0167 10.2083 24.7239 8.81118C28.2617 7.44156 32.3048 6.50153 38.2179 6.22862H38.223ZM83.6073 16.2354C77.7447 15.9675 75.986 15.912 61.1426 15.912C46.2992 15.912 44.5404 15.9675 38.6778 16.2354C33.255 16.483 30.3136 17.3877 28.3527 18.1508C25.76 19.1616 23.9052 20.3594 21.9594 22.3052C20.115 24.0996 18.6955 26.284 17.8051 28.6984C17.042 30.6593 16.1373 33.6007 15.8897 39.0236C15.6218 44.8862 15.5662 46.6449 15.5662 61.4883C15.5662 76.3317 15.6218 78.0905 15.8897 83.9531C16.1373 89.3759 17.042 92.3173 17.8051 94.2782C18.6946 96.689 20.1148 98.8773 21.9594 100.671C23.7536 102.516 25.9419 103.936 28.3527 104.826C30.3136 105.589 33.255 106.494 38.6778 106.741C44.5404 107.009 46.2941 107.065 61.1426 107.065C75.991 107.065 77.7447 107.009 83.6073 106.741C89.0302 106.494 91.9716 105.589 93.9325 104.826C96.5252 103.815 98.38 102.617 100.326 100.671C102.17 98.8773 103.591 96.689 104.48 94.2782C105.243 92.3173 106.148 89.3759 106.395 83.9531C106.663 78.0905 106.719 76.3317 106.719 61.4883C106.719 46.6449 106.663 44.8862 106.395 39.0236C106.148 33.6007 105.243 30.6593 104.48 28.6984C103.469 26.1057 102.271 24.2509 100.326 22.3052C98.5312 20.4609 96.3468 19.0414 93.9325 18.1508C91.9716 17.3877 89.0302 16.483 83.6073 16.2354ZM54.0418 78.6262C58.0074 80.277 62.4231 80.4998 66.5348 79.2565C70.6464 78.0133 74.1989 75.3812 76.5854 71.8097C78.972 68.2382 80.0446 63.9489 79.62 59.6745C79.1954 55.4 77.3 51.4056 74.2575 48.3734C72.318 46.4351 69.9729 44.9509 67.3909 44.0277C64.809 43.1045 62.0545 42.7653 59.3257 43.0345C56.5969 43.3036 53.9617 44.1744 51.6099 45.5843C49.258 46.9941 47.248 48.9078 45.7246 51.1877C44.2011 53.4675 43.2021 56.0568 42.7994 58.7691C42.3967 61.4814 42.6005 64.2492 43.3959 66.8734C44.1913 69.4975 45.5587 71.9126 47.3995 73.9449C49.2404 75.9771 51.5089 77.5759 54.0418 78.6262ZM40.937 41.2827C43.5904 38.6293 46.7405 36.5244 50.2074 35.0884C53.6743 33.6524 57.39 32.9133 61.1426 32.9133C64.8951 32.9133 68.6109 33.6524 72.0778 35.0884C75.5447 36.5244 78.6948 38.6293 81.3482 41.2827C84.0016 43.9361 86.1065 47.0862 87.5425 50.5531C88.9785 54.02 89.7176 57.7358 89.7176 61.4883C89.7176 65.2409 88.9785 68.9566 87.5425 72.4235C86.1065 75.8904 84.0016 79.0405 81.3482 81.6939C75.9893 87.0528 68.7212 90.0634 61.1426 90.0634C53.564 90.0634 46.2958 87.0528 40.937 81.6939C35.5781 76.3351 32.5675 69.0669 32.5675 61.4883C32.5675 53.9097 35.5781 46.6416 40.937 41.2827ZM96.0551 37.1688C96.7127 36.5485 97.2391 35.8026 97.6032 34.9753C97.9673 34.1479 98.1617 33.2559 98.1749 32.352C98.188 31.4482 98.0197 30.5509 97.6799 29.7133C97.3401 28.8757 96.8356 28.1147 96.1965 27.4755C95.5573 26.8364 94.7963 26.3319 93.9587 25.9921C93.1211 25.6523 92.2238 25.484 91.32 25.4972C90.4161 25.5103 89.5241 25.7047 88.6967 26.0688C87.8694 26.4329 87.1235 26.9593 86.5032 27.6169C85.2969 28.8957 84.6364 30.5942 84.6621 32.352C84.6877 34.1098 85.3974 35.7885 86.6405 37.0315C87.8835 38.2746 89.5622 38.9843 91.32 39.0099C93.0778 39.0356 94.7764 38.3751 96.0551 37.1688Z" fill="#5B7DF5"></path>
    </g>
    <defs>
      <filter id="filter0_i_8_36" x="0.495361" y="0.841125" width="121.294" height="125.294" filterUnits="userSpaceOnUse" color-interpolation-filters="sRGB">
        <feFlood flood-opacity="0" result="BackgroundImageFix"></feFlood>
        <feBlend mode="normal" in="SourceGraphic" in2="BackgroundImageFix" result="shape"></feBlend>
        <feColorMatrix in="SourceAlpha" type="matrix" values="0 0 0 0 0 0 0 0 0 0 0 0 0 0 0 0 0 0 127 0" result="hardAlpha"></feColorMatrix>
        <feOffset dy="4"></feOffset>
        <feGaussianBlur stdDeviation="7.5"></feGaussianBlur>
        <feComposite in2="hardAlpha" operator="arithmetic" k2="-1" k3="1"></feComposite>
        <feColorMatrix type="matrix" values="0 0 0 0 0 0 0 0 0 0 0 0 0 0 0 0 0 0 0.2 0"></feColorMatrix>
        <feBlend mode="normal" in2="shape" result="effect1_innerShadow_8_36"></feBlend>
      </filter>
    </defs>
  </symbol>
  <symbol fill="none" xmlns="http://www.w3.org/2000/svg" viewBox="0 0 122 123" id="linkedin">
    <g filter="url(#filter0_i_8_57)">
      <path fill-rule="evenodd" clip-rule="evenodd" d="M5.75025 15.2076C5.75025 12.7439 6.72892 10.3812 8.47097 8.63916C10.213 6.89711 12.5757 5.91844 15.0394 5.91844H107.638C108.858 5.91644 110.068 6.15528 111.196 6.62127C112.325 7.08726 113.35 7.77126 114.214 8.6341C115.078 9.49694 115.763 10.5217 116.23 11.6496C116.697 12.7776 116.937 13.9867 116.937 15.2076V107.806C116.938 109.027 116.699 110.236 116.232 111.365C115.766 112.493 115.081 113.519 114.218 114.382C113.355 115.246 112.33 115.931 111.201 116.398C110.073 116.866 108.864 117.106 107.643 117.105H15.0394C13.8191 117.105 12.6108 116.865 11.4834 116.397C10.3561 115.93 9.33182 115.246 8.46918 114.382C7.60654 113.519 6.92241 112.495 6.45589 111.367C5.98936 110.24 5.74958 109.031 5.75025 107.811V15.2076ZM49.7599 48.3108H64.8156V55.8715C66.9888 51.5251 72.5481 47.6134 80.9022 47.6134C96.9182 47.6134 100.714 56.2708 100.714 72.1553V101.579H84.5057V75.7739C84.5057 66.7274 82.3325 61.6229 76.8136 61.6229C69.1569 61.6229 65.9729 67.1266 65.9729 75.7739V101.579H49.7599V48.3108ZM21.9633 100.887H38.1763V47.6134H21.9633V100.882V100.887ZM40.496 30.238C40.5266 31.6261 40.2796 33.0064 39.7695 34.2979C39.2594 35.5893 38.4965 36.7658 37.5255 37.7584C36.5545 38.751 35.3951 39.5396 34.1152 40.078C32.8353 40.6164 31.4608 40.8938 30.0723 40.8938C28.6838 40.8938 27.3093 40.6164 26.0294 40.078C24.7495 39.5396 23.5901 38.751 22.6191 37.7584C21.6481 36.7658 20.8852 35.5893 20.3751 34.2979C19.865 33.0064 19.618 31.6261 19.6486 30.238C19.7086 27.5132 20.8331 24.9202 22.7814 23.0143C24.7297 21.1084 27.3468 20.0412 30.0723 20.0412C32.7978 20.0412 35.4149 21.1084 37.3632 23.0143C39.3115 24.9202 40.436 27.5132 40.496 30.238Z" fill="#5B7DF5"></path>
    </g>
    <defs>
      <filter id="filter0_i_8_57" x="0.696289" y="0.864502" width="121.294" height="125.294" filterUnits="userSpaceOnUse" color-interpolation-filters="sRGB">
        <feFlood flood-opacity="0" result="BackgroundImageFix"></feFlood>
        <feBlend mode="normal" in="SourceGraphic" in2="BackgroundImageFix" result="shape"></feBlend>
        <feColorMatrix in="SourceAlpha" type="matrix" values="0 0 0 0 0 0 0 0 0 0 0 0 0 0 0 0 0 0 127 0" result="hardAlpha"></feColorMatrix>
        <feOffset dy="4"></feOffset>
        <feGaussianBlur stdDeviation="7.5"></feGaussianBlur>
        <feComposite in2="hardAlpha" operator="arithmetic" k2="-1" k3="1"></feComposite>
        <feColorMatrix type="matrix" values="0 0 0 0 0 0 0 0 0 0 0 0 0 0 0 0 0 0 0.2 0"></feColorMatrix>
        <feBlend mode="normal" in2="shape" result="effect1_innerShadow_8_57"></feBlend>
      </filter>
    </defs>
  </symbol>
  <symbol fill="none" xmlns="http://www.w3.org/2000/svg" viewBox="0 0 122 122" id="messenger">
    <g clip-path="url(#clip0_8_21)" filter="url(#filter0_i_8_21)">
      <path d="M0.0420532 58.8698C0.0420532 25.0666 26.5221 0.0420532 60.6893 0.0420532C94.8564 0.0420532 121.336 25.0666 121.336 58.8698C121.336 92.6731 94.8564 117.698 60.6893 117.698C54.5487 117.698 48.6659 116.886 43.1319 115.37C42.0588 115.072 40.9156 115.152 39.8948 115.598L27.8564 120.919C27.1293 121.24 26.3346 121.377 25.5421 121.319C24.7495 121.261 23.9835 121.009 23.3112 120.585C22.6389 120.161 22.081 119.579 21.6865 118.889C21.292 118.199 21.073 117.423 21.0487 116.629L20.7152 105.841C20.6921 105.184 20.5357 104.539 20.2555 103.945C19.9753 103.351 19.5772 102.82 19.0853 102.384C7.28939 91.8316 0.0420532 76.5485 0.0420532 58.8698ZM42.0857 47.8093L24.2706 76.0709C22.5649 78.7849 25.8929 81.84 28.4477 79.9068L47.5895 65.3818C48.219 64.9036 48.9872 64.6435 49.7778 64.6408C50.5684 64.638 51.3383 64.8928 51.9712 65.3667L66.1399 75.9951C67.1452 76.749 68.2958 77.2864 69.5191 77.5735C70.7425 77.8606 72.012 77.8912 73.2477 77.6633C74.4835 77.4354 75.6586 76.9539 76.699 76.2493C77.7394 75.5446 78.6226 74.6321 79.2928 73.5692L97.1079 45.3076C98.8212 42.5936 95.4856 39.5385 92.9308 41.4717L73.789 55.9967C73.1595 56.4749 72.3913 56.735 71.6007 56.7377C70.8101 56.7405 70.0402 56.4856 69.4073 56.0118L55.2386 45.3758C54.2333 44.622 53.0827 44.0845 51.8594 43.7974C50.636 43.5103 49.3665 43.4797 48.1308 43.7076C46.895 43.9356 45.7199 44.417 44.6795 45.1216C43.6391 45.8263 42.7559 46.7388 42.0857 47.8017V47.8093Z" fill="#5B7DF5"></path>
    </g>
    <defs>
      <filter id="filter0_i_8_21" x="0.0420532" y="0.0420532" width="121.294" height="125.294" filterUnits="userSpaceOnUse" color-interpolation-filters="sRGB">
        <feFlood flood-opacity="0" result="BackgroundImageFix"></feFlood>
        <feBlend mode="normal" in="SourceGraphic" in2="BackgroundImageFix" result="shape"></feBlend>
        <feColorMatrix in="SourceAlpha" type="matrix" values="0 0 0 0 0 0 0 0 0 0 0 0 0 0 0 0 0 0 127 0" result="hardAlpha"></feColorMatrix>
        <feOffset dy="4"></feOffset>
        <feGaussianBlur stdDeviation="7.5"></feGaussianBlur>
        <feComposite in2="hardAlpha" operator="arithmetic" k2="-1" k3="1"></feComposite>
        <feColorMatrix type="matrix" values="0 0 0 0 0 0 0 0 0 0 0 0 0 0 0 0 0 0 0.2 0"></feColorMatrix>
        <feBlend mode="normal" in2="shape" result="effect1_innerShadow_8_21"></feBlend>
      </filter>
      <clipPath id="clip0_8_21">
        <rect width="121.294" height="121.294" fill="white" transform="translate(0.0420532 0.0420532)"></rect>
      </clipPath>
    </defs>
  </symbol>
  <symbol fill="none" xmlns="http://www.w3.org/2000/svg" viewBox="0 0 110 110" id="snapchat">
    <g clip-path="url(#clip0_8_70)" filter="url(#filter0_i_8_70)">
      <path d="M55.9498 3.63348C60.4804 3.63348 75.877 4.90536 83.1267 21.1441C85.5433 26.6235 84.9692 35.8979 84.4879 43.3641V43.6322C84.4329 44.4572 84.3814 45.2272 84.3436 45.9766C84.6839 46.1725 85.2751 46.3891 86.1861 46.3891C87.5473 46.3169 89.1939 45.8357 90.9126 45.0107C91.6654 44.5982 92.487 44.526 93.0439 44.526C93.8689 44.526 94.6904 44.6704 95.3711 44.9385C97.4301 45.6191 98.7364 47.1419 98.7364 48.7885C98.8086 50.8475 96.9454 52.6385 93.1676 54.1407C92.7723 54.2644 92.2189 54.481 91.5933 54.6769C89.5342 55.3025 86.382 56.3235 85.4883 58.3997C85.0758 59.4207 85.2201 60.7991 86.0417 62.3735L86.1139 62.4457C86.382 63.0713 93.0954 78.3613 108.062 80.8329C109.245 81.0494 110.066 82.0669 109.998 83.1772C109.995 83.5287 109.922 83.876 109.781 84.1982C108.688 86.8107 103.944 88.7288 95.3676 90.035C95.0995 90.4475 94.8142 91.7538 94.6148 92.6475C94.4625 93.5 94.2593 94.3425 94.0064 95.1707C93.6489 96.4047 92.7517 97.0338 91.4454 97.0338H91.3217C90.6961 97.0338 89.8883 96.8894 88.8501 96.6935C86.932 96.2799 84.9755 96.0702 83.0133 96.0679C81.6348 96.0679 80.2736 96.14 78.8229 96.4082C76.0833 96.8929 73.6839 98.5394 70.927 100.471C67.0254 103.211 62.567 106.363 55.8329 106.363C55.5648 106.363 55.2967 106.291 55.0079 106.291H54.3273C47.5967 106.291 43.2104 103.211 39.2883 100.399C36.5486 98.4638 34.2214 96.8172 31.4645 96.336C30.0597 96.1283 28.6426 96.0146 27.2226 95.9957C24.7511 95.9957 22.8364 96.4082 21.3858 96.6935C20.5744 96.8842 19.7469 96.9982 18.9142 97.0338C17.1954 97.0338 16.5148 95.9957 16.2467 95.0985C15.9614 94.2219 15.8342 93.3075 15.6211 92.5032C15.4045 91.6782 15.1364 90.231 14.8683 89.8907C6.07857 88.8697 1.35201 86.955 0.241695 84.2704C0.0905001 83.9442 0.00522193 83.5914 -0.00924283 83.2322C-0.0311743 82.6738 0.154435 82.127 0.511796 81.6972C0.869158 81.2675 1.37296 80.9853 1.92607 80.905C16.8758 78.4335 23.6064 63.1263 23.8745 62.4835L23.9467 62.3597C24.7717 60.7647 24.9848 59.4069 24.5001 58.3688C23.6064 56.3819 20.4542 55.361 18.3951 54.6632C17.8499 54.5275 17.3165 54.3482 16.8001 54.1269C11.7333 52.1229 11.0354 49.8644 11.3208 48.29C11.7333 46.0866 14.4008 44.6566 16.6729 44.6566C17.3364 44.6566 17.907 44.7804 18.4261 44.9969C20.3408 45.8735 22.0423 46.3582 23.4929 46.3582C24.5483 46.3582 25.2461 46.09 25.6242 45.8941L25.4076 43.2816C24.9608 35.8325 24.3695 26.541 26.8033 21.1166C33.857 4.95005 49.202 3.71255 53.7292 3.71255L55.6439 3.64036L55.9498 3.63348Z" fill="#5B7DF5"></path>
    </g>
    <defs>
      <filter id="filter0_i_8_70" x="0" y="0" width="110" height="114" filterUnits="userSpaceOnUse" color-interpolation-filters="sRGB">
        <feFlood flood-opacity="0" result="BackgroundImageFix"></feFlood>
        <feBlend mode="normal" in="SourceGraphic" in2="BackgroundImageFix" result="shape"></feBlend>
        <feColorMatrix in="SourceAlpha" type="matrix" values="0 0 0 0 0 0 0 0 0 0 0 0 0 0 0 0 0 0 127 0" result="hardAlpha"></feColorMatrix>
        <feOffset dy="4"></feOffset>
        <feGaussianBlur stdDeviation="7.5"></feGaussianBlur>
        <feComposite in2="hardAlpha" operator="arithmetic" k2="-1" k3="1"></feComposite>
        <feColorMatrix type="matrix" values="0 0 0 0 0 0 0 0 0 0 0 0 0 0 0 0 0 0 0.2 0"></feColorMatrix>
        <feBlend mode="normal" in2="shape" result="effect1_innerShadow_8_70"></feBlend>
      </filter>
      <clipPath id="clip0_8_70">
        <rect width="110" height="110" fill="white"></rect>
      </clipPath>
    </defs>
  </symbol>
  <symbol fill="none" xmlns="http://www.w3.org/2000/svg" viewBox="0 0 105 105" id="tiktok">
    <g filter="url(#filter0_i_8_75)">
      <path d="M54.8232 0.0885938C60.549 0 66.2419 0.0525 71.9283 0C72.2729 6.69703 74.6813 13.5188 79.5835 18.2536C84.4758 23.1066 91.396 25.328 98.1291 26.0794V43.6964C91.8193 43.4897 85.4799 42.1772 79.7541 39.4603C77.2604 38.3316 74.9372 36.878 72.6633 35.3916C72.6338 48.1753 72.7158 60.9427 72.5813 73.6739C72.2401 79.7902 70.2221 85.8769 66.6652 90.9169C60.9427 99.307 51.0104 104.777 40.809 104.947C34.5516 105.305 28.3008 103.599 22.9688 100.455C14.1324 95.2448 7.91444 85.7063 7.00881 75.4688C6.89474 73.3006 6.87722 71.1285 6.95631 68.9588C7.74381 60.6342 11.8618 52.6706 18.2537 47.2533C25.4987 40.9434 35.6476 37.9378 45.1501 39.7163C45.2387 46.1967 44.9794 52.6706 44.9794 59.1511C40.6383 57.7467 35.5655 58.1405 31.7724 60.7753C28.9973 62.6035 26.9001 65.2933 25.8038 68.4305C24.8982 70.6486 25.1574 73.1128 25.2099 75.4688C26.2501 82.6481 33.1538 88.6823 40.5235 88.0294C45.4093 87.9769 50.0916 85.1419 52.6379 80.9911C53.4615 79.5375 54.3835 78.0511 54.4327 76.3416C54.8626 68.5158 54.6919 60.7228 54.7444 52.897C54.7805 35.2603 54.6919 17.6728 54.8265 0.091875L54.8232 0.0885938Z" fill="#5B7DF5"></path>
    </g>
    <defs>
      <filter id="filter0_i_8_75" x="0" y="0" width="105" height="109" filterUnits="userSpaceOnUse" color-interpolation-filters="sRGB">
        <feFlood flood-opacity="0" result="BackgroundImageFix"></feFlood>
        <feBlend mode="normal" in="SourceGraphic" in2="BackgroundImageFix" result="shape"></feBlend>
        <feColorMatrix in="SourceAlpha" type="matrix" values="0 0 0 0 0 0 0 0 0 0 0 0 0 0 0 0 0 0 127 0" result="hardAlpha"></feColorMatrix>
        <feOffset dy="4"></feOffset>
        <feGaussianBlur stdDeviation="7.5"></feGaussianBlur>
        <feComposite in2="hardAlpha" operator="arithmetic" k2="-1" k3="1"></feComposite>
        <feColorMatrix type="matrix" values="0 0 0 0 0 0 0 0 0 0 0 0 0 0 0 0 0 0 0.2 0"></feColorMatrix>
        <feBlend mode="normal" in2="shape" result="effect1_innerShadow_8_75"></feBlend>
      </filter>
    </defs>
  </symbol>
  <symbol fill="none" xmlns="http://www.w3.org/2000/svg" viewBox="0 0 122 122" id="twitter">
    <g filter="url(#filter0_i_8_29)">
      <path d="M120.158 25.3951C115.938 27.2651 111.405 28.5286 106.639 29.0997C111.557 26.1572 115.236 21.5262 116.99 16.0706C112.369 18.8149 107.313 20.7465 102.04 21.7816C98.4941 17.9955 93.7974 15.486 88.6791 14.6428C83.5608 13.7995 78.3073 14.6696 73.7342 17.1181C69.1611 19.5665 65.5242 23.4563 63.3883 28.1834C61.2524 32.9106 60.7369 38.2106 61.9219 43.2608C52.5604 42.7908 43.4024 40.3576 35.0422 36.1191C26.682 31.8807 19.3063 25.9317 13.394 18.6582C11.3725 22.1455 10.2101 26.1886 10.2101 30.4946C10.2078 34.3709 11.1624 38.1879 12.9891 41.6068C14.8158 45.0257 17.4582 47.9409 20.6818 50.0937C16.9433 49.9748 13.2873 48.9646 10.018 47.1473V47.4505C10.0176 52.8872 11.8982 58.1566 15.3407 62.3646C18.7832 66.5726 23.5756 69.46 28.9046 70.5369C25.4365 71.4755 21.8004 71.6137 18.2711 70.9412C19.7746 75.6192 22.7034 79.7099 26.6473 82.6407C30.5913 85.5714 35.353 87.1955 40.2658 87.2856C31.926 93.8325 21.6263 97.3838 11.0238 97.3682C9.14561 97.3687 7.26906 97.259 5.40378 97.0397C16.166 103.959 28.694 107.632 41.4889 107.618C84.8011 107.618 108.479 71.7448 108.479 40.6327C108.479 39.622 108.453 38.6011 108.408 37.5903C113.014 34.2596 116.989 30.1352 120.148 25.4103L120.158 25.3951Z" fill="#5B7DF5"></path>
    </g>
    <defs>
      <filter id="filter0_i_8_29" x="0.668213" y="0.443924" width="121.294" height="125.294" filterUnits="userSpaceOnUse" color-interpolation-filters="sRGB">
        <feFlood flood-opacity="0" result="BackgroundImageFix"></feFlood>
        <feBlend mode="normal" in="SourceGraphic" in2="BackgroundImageFix" result="shape"></feBlend>
        <feColorMatrix in="SourceAlpha" type="matrix" values="0 0 0 0 0 0 0 0 0 0 0 0 0 0 0 0 0 0 127 0" result="hardAlpha"></feColorMatrix>
        <feOffset dy="4"></feOffset>
        <feGaussianBlur stdDeviation="7.5"></feGaussianBlur>
        <feComposite in2="hardAlpha" operator="arithmetic" k2="-1" k3="1"></feComposite>
        <feColorMatrix type="matrix" values="0 0 0 0 0 0 0 0 0 0 0 0 0 0 0 0 0 0 0.2 0"></feColorMatrix>
        <feBlend mode="normal" in2="shape" result="effect1_innerShadow_8_29"></feBlend>
      </filter>
    </defs>
  </symbol>
  <symbol fill="none" xmlns="http://www.w3.org/2000/svg" viewBox="0 0 109 109" id="whatsapp">
    <g filter="url(#filter0_i_8_89)">
      <path fill-rule="evenodd" clip-rule="evenodd" d="M79.1123 65.3184C77.7589 64.6417 71.1235 61.3807 69.8882 60.9266C68.6528 60.477 67.7536 60.2544 66.8498 61.6078C65.9505 62.9522 63.3663 65.9951 62.5806 66.8943C61.7904 67.7981 61.0047 67.9071 59.6558 67.2349C58.3069 66.5537 53.956 65.1322 48.8012 60.536C44.7909 56.9572 42.0795 52.5381 41.2938 51.1847C40.5081 49.8358 41.2075 49.1046 41.8842 48.4324C42.4928 47.8284 43.2331 46.8565 43.9098 46.0708C44.5865 45.2805 44.8091 44.7174 45.2587 43.8136C45.7129 42.9143 45.4858 42.1286 45.1452 41.4519C44.8091 40.7752 42.1113 34.1307 40.985 31.4285C39.8905 28.7988 38.7777 29.1576 37.9512 29.1122C37.1609 29.0759 36.2617 29.0668 35.3624 29.0668C34.4632 29.0668 33.0007 29.4029 31.7654 30.7563C30.5255 32.1052 27.0421 35.3706 27.0421 42.0151C27.0421 48.655 31.8744 55.0724 32.5511 55.9762C33.2278 56.8754 42.0659 70.5095 55.6046 76.3546C58.8292 77.7444 61.3407 78.5755 63.2982 79.1932C66.5319 80.2241 69.4749 80.0788 71.8002 79.7291C74.3889 79.343 79.7844 76.4636 80.9108 73.3117C82.0326 70.1598 82.0326 67.4575 81.6965 66.8943C81.3604 66.3312 80.4612 65.9951 79.1077 65.3184H79.1123ZM54.4874 98.9403H54.4692C46.4279 98.9418 38.5342 96.7801 31.6155 92.6819L29.9805 91.71L12.9856 96.1699L17.5227 79.6019L16.4555 77.9033C11.9598 70.7472 9.58071 62.4652 9.593 54.0142C9.60208 29.2621 29.7398 9.12433 54.5055 9.12433C66.4955 9.12433 77.768 13.8022 86.2427 22.2861C90.4227 26.4489 93.7359 31.3992 95.9904 36.8507C98.2449 42.3022 99.396 48.1467 99.3772 54.0459C99.3681 78.798 79.2304 98.9403 54.4874 98.9403ZM92.6919 15.8415C87.6878 10.8044 81.7339 6.81052 75.1751 4.09126C68.6162 1.372 61.583 -0.018574 54.4828 0.000125071C24.7167 0.000125071 0.482415 24.2299 0.473332 54.0096C0.46879 63.5289 2.95308 72.8212 7.68096 81.0098L0.019165 109L28.6498 101.488C36.5699 105.803 45.4453 108.064 54.4647 108.065H54.4874C84.2534 108.065 108.488 83.8347 108.497 54.0505C108.519 46.9531 107.133 39.9218 104.42 33.3634C101.708 26.8049 97.7211 20.8494 92.6919 15.8415Z" fill="#5B7DF5"></path>
    </g>
    <defs>
      <filter id="filter0_i_8_89" x="0.019165" y="-6.10352e-05" width="108.478" height="113" filterUnits="userSpaceOnUse" color-interpolation-filters="sRGB">
        <feFlood flood-opacity="0" result="BackgroundImageFix"></feFlood>
        <feBlend mode="normal" in="SourceGraphic" in2="BackgroundImageFix" result="shape"></feBlend>
        <feColorMatrix in="SourceAlpha" type="matrix" values="0 0 0 0 0 0 0 0 0 0 0 0 0 0 0 0 0 0 127 0" result="hardAlpha"></feColorMatrix>
        <feOffset dy="4"></feOffset>
        <feGaussianBlur stdDeviation="7.5"></feGaussianBlur>
        <feComposite in2="hardAlpha" operator="arithmetic" k2="-1" k3="1"></feComposite>
        <feColorMatrix type="matrix" values="0 0 0 0 0 0 0 0 0 0 0 0 0 0 0 0 0 0 0.2 0"></feColorMatrix>
        <feBlend mode="normal" in2="shape" result="effect1_innerShadow_8_89"></feBlend>
      </filter>
    </defs>
  </symbol>
  <symbol fill="none" xmlns="http://www.w3.org/2000/svg" viewBox="0 0 122 123" id="youtube">
    <g clip-path="url(#clip0_8_48)" filter="url(#filter0_i_8_48)">
      <path d="M118.838 33.7505C118.151 31.3005 116.813 29.0824 114.966 27.332C113.067 25.5278 110.74 24.2372 108.204 23.582C98.7128 21.0803 60.687 21.0803 60.687 21.0803C44.8345 20.8999 28.9858 21.6932 13.2305 23.4556C10.6944 24.1592 8.37151 25.4787 6.46838 27.2966C4.59843 29.0958 3.24397 31.3145 2.53642 33.7455C0.836751 42.9019 0.0109339 52.1991 0.0701053 61.5118C0.00945809 70.8161 0.833249 80.1102 2.53642 89.2781C3.22881 91.6989 4.57821 93.9075 6.45322 95.6915C8.32823 97.4756 10.6631 98.7643 13.2305 99.4466C22.8482 101.943 60.687 101.943 60.687 101.943C76.5597 102.124 92.4285 101.331 108.204 99.5679C110.74 98.9127 113.067 97.6221 114.966 95.8179C116.836 94.0338 118.165 91.8151 118.832 89.3994C120.577 80.2465 121.425 70.9454 121.364 61.628C121.496 52.2712 120.649 42.9262 118.838 33.7455V33.7505ZM48.598 78.8164V44.2122L80.2356 61.5168L48.598 78.8164Z" fill="#5B7DF5"></path>
    </g>
    <defs>
      <filter id="filter0_i_8_48" x="0.0700684" y="0.864502" width="121.294" height="125.294" filterUnits="userSpaceOnUse" color-interpolation-filters="sRGB">
        <feFlood flood-opacity="0" result="BackgroundImageFix"></feFlood>
        <feBlend mode="normal" in="SourceGraphic" in2="BackgroundImageFix" result="shape"></feBlend>
        <feColorMatrix in="SourceAlpha" type="matrix" values="0 0 0 0 0 0 0 0 0 0 0 0 0 0 0 0 0 0 127 0" result="hardAlpha"></feColorMatrix>
        <feOffset dy="4"></feOffset>
        <feGaussianBlur stdDeviation="7.5"></feGaussianBlur>
        <feComposite in2="hardAlpha" operator="arithmetic" k2="-1" k3="1"></feComposite>
        <feColorMatrix type="matrix" values="0 0 0 0 0 0 0 0 0 0 0 0 0 0 0 0 0 0 0.2 0"></feColorMatrix>
        <feBlend mode="normal" in2="shape" result="effect1_innerShadow_8_48"></feBlend>
      </filter>
      <clipPath id="clip0_8_48">
        <rect width="121.294" height="121.294" fill="white" transform="translate(0.0700684 0.864502)"></rect>
      </clipPath>
    </defs>
  </symbol>
</svg>