<svg width="105" height="105" viewBox="0 0 105 105" fill="none" xmlns="http://www.w3.org/2000/svg">
<g filter="url(#filter0_i_8_75)">
<path d="M54.8232 0.0885938C60.549 0 66.2419 0.0525 71.9283 0C72.2729 6.69703 74.6813 13.5188 79.5835 18.2536C84.4758 23.1066 91.396 25.328 98.1291 26.0794V43.6964C91.8193 43.4897 85.4799 42.1772 79.7541 39.4603C77.2604 38.3316 74.9372 36.878 72.6633 35.3916C72.6338 48.1753 72.7158 60.9427 72.5813 73.6739C72.2401 79.7902 70.2221 85.8769 66.6652 90.9169C60.9427 99.307 51.0104 104.777 40.809 104.947C34.5516 105.305 28.3008 103.599 22.9688 100.455C14.1324 95.2448 7.91444 85.7063 7.00881 75.4688C6.89474 73.3006 6.87722 71.1285 6.95631 68.9588C7.74381 60.6342 11.8618 52.6706 18.2537 47.2533C25.4987 40.9434 35.6476 37.9378 45.1501 39.7163C45.2387 46.1967 44.9794 52.6706 44.9794 59.1511C40.6383 57.7467 35.5655 58.1405 31.7724 60.7753C28.9973 62.6035 26.9001 65.2933 25.8038 68.4305C24.8982 70.6486 25.1574 73.1128 25.2099 75.4688C26.2501 82.6481 33.1538 88.6823 40.5235 88.0294C45.4093 87.9769 50.0916 85.1419 52.6379 80.9911C53.4615 79.5375 54.3835 78.0511 54.4327 76.3416C54.8626 68.5158 54.6919 60.7228 54.7444 52.897C54.7805 35.2603 54.6919 17.6728 54.8265 0.091875L54.8232 0.0885938Z" fill="#5B7DF5"/>
</g>
<defs>
<filter id="filter0_i_8_75" x="0" y="0" width="105" height="109" filterUnits="userSpaceOnUse" color-interpolation-filters="sRGB">
<feFlood flood-opacity="0" result="BackgroundImageFix"/>
<feBlend mode="normal" in="SourceGraphic" in2="BackgroundImageFix" result="shape"/>
<feColorMatrix in="SourceAlpha" type="matrix" values="0 0 0 0 0 0 0 0 0 0 0 0 0 0 0 0 0 0 127 0" result="hardAlpha"/>
<feOffset dy="4"/>
<feGaussianBlur stdDeviation="7.5"/>
<feComposite in2="hardAlpha" operator="arithmetic" k2="-1" k3="1"/>
<feColorMatrix type="matrix" values="0 0 0 0 0 0 0 0 0 0 0 0 0 0 0 0 0 0 0.2 0"/>
<feBlend mode="normal" in2="shape" result="effect1_innerShadow_8_75"/>
</filter>
</defs>
</svg>
