<svg width="122" height="122" viewBox="0 0 122 122" fill="none" xmlns="http://www.w3.org/2000/svg">
<g filter="url(#filter0_i_8_29)">
<path d="M120.158 25.3951C115.938 27.2651 111.405 28.5286 106.639 29.0997C111.557 26.1572 115.236 21.5262 116.99 16.0706C112.369 18.8149 107.313 20.7465 102.04 21.7816C98.4941 17.9955 93.7974 15.486 88.6791 14.6428C83.5608 13.7995 78.3073 14.6696 73.7342 17.1181C69.1611 19.5665 65.5242 23.4563 63.3883 28.1834C61.2524 32.9106 60.7369 38.2106 61.9219 43.2608C52.5604 42.7908 43.4024 40.3576 35.0422 36.1191C26.682 31.8807 19.3063 25.9317 13.394 18.6582C11.3725 22.1455 10.2101 26.1886 10.2101 30.4946C10.2078 34.3709 11.1624 38.1879 12.9891 41.6068C14.8158 45.0257 17.4582 47.9409 20.6818 50.0937C16.9433 49.9748 13.2873 48.9646 10.018 47.1473V47.4505C10.0176 52.8872 11.8982 58.1566 15.3407 62.3646C18.7832 66.5726 23.5756 69.46 28.9046 70.5369C25.4365 71.4755 21.8004 71.6137 18.2711 70.9412C19.7746 75.6192 22.7034 79.7099 26.6473 82.6407C30.5913 85.5714 35.353 87.1955 40.2658 87.2856C31.926 93.8325 21.6263 97.3838 11.0238 97.3682C9.14561 97.3687 7.26906 97.259 5.40378 97.0397C16.166 103.959 28.694 107.632 41.4889 107.618C84.8011 107.618 108.479 71.7448 108.479 40.6327C108.479 39.622 108.453 38.6011 108.408 37.5903C113.014 34.2596 116.989 30.1352 120.148 25.4103L120.158 25.3951Z" fill="#5B7DF5"/>
</g>
<defs>
<filter id="filter0_i_8_29" x="0.668213" y="0.443924" width="121.294" height="125.294" filterUnits="userSpaceOnUse" color-interpolation-filters="sRGB">
<feFlood flood-opacity="0" result="BackgroundImageFix"/>
<feBlend mode="normal" in="SourceGraphic" in2="BackgroundImageFix" result="shape"/>
<feColorMatrix in="SourceAlpha" type="matrix" values="0 0 0 0 0 0 0 0 0 0 0 0 0 0 0 0 0 0 127 0" result="hardAlpha"/>
<feOffset dy="4"/>
<feGaussianBlur stdDeviation="7.5"/>
<feComposite in2="hardAlpha" operator="arithmetic" k2="-1" k3="1"/>
<feColorMatrix type="matrix" values="0 0 0 0 0 0 0 0 0 0 0 0 0 0 0 0 0 0 0.2 0"/>
<feBlend mode="normal" in2="shape" result="effect1_innerShadow_8_29"/>
</filter>
</defs>
</svg>
