<svg width="109" height="109" viewBox="0 0 109 109" fill="none" xmlns="http://www.w3.org/2000/svg">
<g filter="url(#filter0_i_8_89)">
<path fill-rule="evenodd" clip-rule="evenodd" d="M79.1123 65.3184C77.7589 64.6417 71.1235 61.3807 69.8882 60.9266C68.6528 60.477 67.7536 60.2544 66.8498 61.6078C65.9505 62.9522 63.3663 65.9951 62.5806 66.8943C61.7904 67.7981 61.0047 67.9071 59.6558 67.2349C58.3069 66.5537 53.956 65.1322 48.8012 60.536C44.7909 56.9572 42.0795 52.5381 41.2938 51.1847C40.5081 49.8358 41.2075 49.1046 41.8842 48.4324C42.4928 47.8284 43.2331 46.8565 43.9098 46.0708C44.5865 45.2805 44.8091 44.7174 45.2587 43.8136C45.7129 42.9143 45.4858 42.1286 45.1452 41.4519C44.8091 40.7752 42.1113 34.1307 40.985 31.4285C39.8905 28.7988 38.7777 29.1576 37.9512 29.1122C37.1609 29.0759 36.2617 29.0668 35.3624 29.0668C34.4632 29.0668 33.0007 29.4029 31.7654 30.7563C30.5255 32.1052 27.0421 35.3706 27.0421 42.0151C27.0421 48.655 31.8744 55.0724 32.5511 55.9762C33.2278 56.8754 42.0659 70.5095 55.6046 76.3546C58.8292 77.7444 61.3407 78.5755 63.2982 79.1932C66.5319 80.2241 69.4749 80.0788 71.8002 79.7291C74.3889 79.343 79.7844 76.4636 80.9108 73.3117C82.0326 70.1598 82.0326 67.4575 81.6965 66.8943C81.3604 66.3312 80.4612 65.9951 79.1077 65.3184H79.1123ZM54.4874 98.9403H54.4692C46.4279 98.9418 38.5342 96.7801 31.6155 92.6819L29.9805 91.71L12.9856 96.1699L17.5227 79.6019L16.4555 77.9033C11.9598 70.7472 9.58071 62.4652 9.593 54.0142C9.60208 29.2621 29.7398 9.12433 54.5055 9.12433C66.4955 9.12433 77.768 13.8022 86.2427 22.2861C90.4227 26.4489 93.7359 31.3992 95.9904 36.8507C98.2449 42.3022 99.396 48.1467 99.3772 54.0459C99.3681 78.798 79.2304 98.9403 54.4874 98.9403ZM92.6919 15.8415C87.6878 10.8044 81.7339 6.81052 75.1751 4.09126C68.6162 1.372 61.583 -0.018574 54.4828 0.000125071C24.7167 0.000125071 0.482415 24.2299 0.473332 54.0096C0.46879 63.5289 2.95308 72.8212 7.68096 81.0098L0.019165 109L28.6498 101.488C36.5699 105.803 45.4453 108.064 54.4647 108.065H54.4874C84.2534 108.065 108.488 83.8347 108.497 54.0505C108.519 46.9531 107.133 39.9218 104.42 33.3634C101.708 26.8049 97.7211 20.8494 92.6919 15.8415Z" fill="#5B7DF5"/>
</g>
<defs>
<filter id="filter0_i_8_89" x="0.019165" y="-6.10352e-05" width="108.478" height="113" filterUnits="userSpaceOnUse" color-interpolation-filters="sRGB">
<feFlood flood-opacity="0" result="BackgroundImageFix"/>
<feBlend mode="normal" in="SourceGraphic" in2="BackgroundImageFix" result="shape"/>
<feColorMatrix in="SourceAlpha" type="matrix" values="0 0 0 0 0 0 0 0 0 0 0 0 0 0 0 0 0 0 127 0" result="hardAlpha"/>
<feOffset dy="4"/>
<feGaussianBlur stdDeviation="7.5"/>
<feComposite in2="hardAlpha" operator="arithmetic" k2="-1" k3="1"/>
<feColorMatrix type="matrix" values="0 0 0 0 0 0 0 0 0 0 0 0 0 0 0 0 0 0 0.2 0"/>
<feBlend mode="normal" in2="shape" result="effect1_innerShadow_8_89"/>
</filter>
</defs>
</svg>
